<svg width="114" height="113" viewBox="0 0 114 113" fill="none" xmlns="http://www.w3.org/2000/svg">
<g clip-path="url(#clip0_4305_547)">
<path d="M51.3016 0.300781L51.4016 1.20078C50.1016 1.40078 49.4016 2.30078 49.5016 3.60078L50.0016 6.90078L49.0016 7.00078L48.1016 0.800781L49.0016 0.600781L49.2016 2.00078C49.5016 1.10078 50.2016 0.400781 51.3016 0.300781Z" fill="#2A2A2A"/>
<path d="M58.6038 3.40039L53.4038 3.60039C53.6038 4.80039 54.5038 5.60039 55.8038 5.60039C56.6038 5.60039 57.3038 5.30039 57.7038 4.70039L58.2038 5.20039C57.6038 5.90039 56.8038 6.30039 55.7038 6.30039C53.8038 6.40039 52.5038 5.10039 52.4038 3.20039C52.3038 1.30039 53.6038 0.000390626 55.4038 -0.0996094C57.5038 -0.0996094 58.6038 1.30039 58.6038 3.40039ZM57.7038 2.70039C57.6038 1.50039 56.8038 0.700391 55.5038 0.800391C54.3038 0.800391 53.5038 1.70039 53.4038 2.90039L57.7038 2.70039Z" fill="#2A2A2A"/>
<path d="M66.7984 3.9C66.5984 5.8 65.1984 6.9 63.4984 6.7C62.3984 6.6 61.5984 6 61.1984 5.1L60.7984 8.8L59.8984 8.7L60.7984 0L61.6984 0.1L61.5984 1.4C62.1984 0.6 63.0984 0.2 64.1984 0.3C65.8984 0.5 66.9984 2 66.7984 3.9ZM65.7984 3.7C65.8984 2.3 65.0984 1.2 63.7984 1.1C62.4984 1 61.3984 1.8 61.2984 3.2C61.1984 4.6 61.9984 5.7 63.2984 5.8C64.6984 6 65.6984 5.1 65.7984 3.7Z" fill="#2A2A2A"/>
<path d="M72.3969 1.90078L72.1969 2.80078C70.8969 2.50078 69.8969 3.10078 69.4969 4.30078L68.6969 7.60078L67.7969 7.40078L69.1969 1.30078L70.0969 1.50078L69.7969 2.90078C70.3969 2.00078 71.2969 1.70078 72.3969 1.90078Z" fill="#2A2A2A"/>
<path d="M77.9977 7.50128L73.0977 5.80128C72.7977 7.00128 73.3977 8.10128 74.5977 8.50128C75.2977 8.80128 76.0977 8.70128 76.6977 8.40128L76.9977 9.10128C76.1977 9.50128 75.1977 9.60128 74.2977 9.20128C72.4977 8.60128 71.7977 6.90128 72.3977 5.10128C72.9977 3.30128 74.6977 2.50128 76.3977 3.10128C78.2977 3.90128 78.7977 5.60128 77.9977 7.50128ZM77.4977 6.60128C77.8977 5.40128 77.2977 4.40128 76.1977 4.00128C74.9977 3.60128 73.8977 4.00128 73.3977 5.10128L77.4977 6.60128Z" fill="#2A2A2A"/>
<path d="M82.1984 6.49974C81.5984 6.19974 80.9984 6.19974 80.6984 6.69974C80.0984 7.99974 83.5984 8.89974 82.5984 10.9997C82.0984 12.0997 80.7984 12.0997 79.6984 11.5997C78.8984 11.1997 78.1984 10.4997 77.8984 9.69974L78.4984 9.19974C78.7984 9.89974 79.3984 10.4997 79.9984 10.8997C80.6984 11.1997 81.2984 11.1997 81.5984 10.6997C82.2984 9.29974 78.7984 8.49974 79.7984 6.49974C80.2984 5.39974 81.4984 5.39974 82.4984 5.89974C83.1984 6.19974 83.6984 6.79974 83.9984 7.29974L83.3984 7.79974C83.1984 7.29974 82.6984 6.79974 82.1984 6.49974Z" fill="#2A2A2A"/>
<path d="M89.0004 13.7996L84.7004 10.9996C84.1004 12.0996 84.4004 13.2996 85.5004 13.9996C86.2004 14.3996 86.9004 14.5996 87.6004 14.3996L87.7004 15.0996C86.8004 15.2996 85.9004 15.1996 85.0004 14.5996C83.4004 13.5996 83.1004 11.7996 84.1004 10.1996C85.1004 8.59958 86.9004 8.29958 88.5004 9.29958C90.2004 10.3996 90.3004 12.0996 89.0004 13.7996ZM88.7004 12.7996C89.3004 11.6996 89.1004 10.5996 88.0004 9.99958C87.0004 9.29958 85.8004 9.49958 85.0004 10.4996L88.7004 12.7996Z" fill="#2A2A2A"/>
<path d="M95.4 17.9008L92.8 20.8008L92.1 20.2008L94.5 17.5008C95.2 16.7008 95.2 15.7008 94.4 15.0008C93.5 14.2008 92.3 14.3008 91.4 15.1008L89.2 17.6008L88.5 17.0008L92.7 12.3008L93.4 12.9008L92.5 13.9008C93.5 13.5008 94.4 13.7008 95.3 14.5008C96.4 15.5008 96.4 16.8008 95.4 17.9008Z" fill="#2A2A2A"/>
<path d="M96.5961 24.4012C96.0961 24.3012 95.5961 24.0012 95.2961 23.6012C94.6961 22.9012 94.5961 22.0012 95.5961 21.2012L98.2961 18.8012L97.6961 18.1012L98.1961 17.6012L98.7961 18.3012L99.9961 17.2012L100.596 17.9012L99.3961 19.0012L100.696 20.5012L100.196 21.0012L98.8961 19.5012L96.2961 21.8012C95.6961 22.3012 95.6961 22.7012 95.9961 23.1012C96.1961 23.3012 96.4961 23.5012 96.8961 23.6012L96.5961 24.4012Z" fill="#2A2A2A"/>
<path d="M99.2996 28.8008L100.1 28.2008C99.2996 28.2008 98.4996 27.7008 97.8996 26.9008C97.0996 25.8008 97.2996 24.7008 98.1996 24.0008C99.0996 23.4008 100.2 23.7008 101 24.9008L102.2 26.6008L102.5 26.4008C103.3 25.9008 103.4 25.1008 102.7 24.2008C102.3 23.6008 101.7 23.3008 100.9 23.0008L101.2 22.3008C102.1 22.7008 102.8 23.0008 103.4 23.9008C104.3 25.2008 104.1 26.4008 103 27.1008L99.5996 29.5008L99.2996 28.8008ZM101 27.5008L101.6 27.1008L100.5 25.5008C99.8996 24.6008 99.2996 24.4008 98.6996 24.8008C98.0996 25.2008 98.0996 25.9008 98.5996 26.7008C99.1996 27.5008 100.1 27.8008 101 27.5008Z" fill="#2A2A2A"/>
<path d="M102.703 33.8C102.203 33.6 101.803 33.2 101.603 32.8C101.103 32 101.303 31.1 102.403 30.5L105.603 28.7L105.203 27.9L105.803 27.5L106.203 28.3L107.703 27.5L108.103 28.3L106.603 29.1L107.603 30.9L107.003 31.3L106.003 29.5L103.003 31.2C102.303 31.6 102.203 32 102.503 32.5C102.703 32.8 102.903 33 103.303 33.2L102.703 33.8Z" fill="#2A2A2A"/>
<path d="M108.897 33.3996L103.197 35.9996L102.797 35.1996L108.497 32.5996L108.897 33.3996ZM110.597 32.7996C110.297 32.8996 109.897 32.7996 109.797 32.4996C109.697 32.1996 109.797 31.7996 110.097 31.6996C110.397 31.4996 110.797 31.6996 110.897 31.9996C111.097 32.2996 110.997 32.5996 110.597 32.7996Z" fill="#2A2A2A"/>
<path d="M110 35.7008L105.6 39.4008L111.3 39.5008L111.6 40.4008L104.8 40.2008L104.5 39.3008L109.6 34.8008L110 35.7008Z" fill="#2A2A2A"/>
<path d="M109.698 47.9004L108.598 42.9004C107.398 43.3004 106.798 44.4004 107.098 45.6004C107.298 46.4004 107.698 47.0004 108.298 47.3004L107.898 47.9004C107.098 47.5004 106.598 46.7004 106.298 45.6004C105.898 43.8004 106.898 42.2004 108.698 41.8004C110.498 41.4004 112.098 42.4004 112.498 44.2004C112.998 46.3004 111.798 47.5004 109.698 47.9004ZM110.298 46.9004C111.498 46.6004 112.098 45.6004 111.798 44.4004C111.498 43.2004 110.598 42.5004 109.398 42.7004L110.298 46.9004Z" fill="#2A2A2A"/>
<path d="M111.503 55.6008H110.803L110.703 52.8008H111.403L111.503 55.6008Z" fill="#2A2A2A"/>
<path d="M113.697 61.9012L108.097 62.8012L113.097 65.5012L112.897 66.5012L107.297 67.4012L112.297 70.1012L112.097 71.1012L106.297 67.7012L106.497 66.7012L111.897 65.7012L107.097 63.0012L107.297 62.0012L113.897 60.7012L113.697 61.9012Z" fill="#2A2A2A"/>
<path d="M106.4 76.6012L108.1 71.7012C106.9 71.4012 105.8 72.0012 105.4 73.2012C105.1 73.9012 105.2 74.7012 105.5 75.3012L104.8 75.6012C104.4 74.8012 104.3 73.8012 104.7 72.9012C105.3 71.1012 107 70.4012 108.8 71.0012C110.6 71.6012 111.4 73.3012 110.8 75.0012C110 76.9012 108.3 77.4012 106.4 76.6012ZM107.3 76.1012C108.5 76.4012 109.5 75.9012 109.9 74.8012C110.3 73.7012 109.8 72.6012 108.7 72.0012L107.3 76.1012Z" fill="#2A2A2A"/>
<path d="M102.996 84.0996C101.296 83.1996 100.696 81.4996 101.596 79.9996C102.096 78.9996 102.996 78.4996 103.996 78.4996L102.796 77.8996L103.196 77.0996L111.096 81.1996L110.696 81.9996L107.196 80.1996C107.796 80.9996 107.796 81.9996 107.296 82.9996C106.396 84.4996 104.596 84.9996 102.996 84.0996ZM103.396 83.2996C104.596 83.8996 105.896 83.5996 106.596 82.3996C107.196 81.1996 106.796 79.8996 105.496 79.2996C104.296 78.6996 102.996 78.9996 102.296 80.1996C101.696 81.2996 102.196 82.5996 103.396 83.2996Z" fill="#2A2A2A"/>
<path d="M102.899 88.2996C103.299 87.6996 103.399 87.0996 102.899 86.7996C101.699 85.9996 100.299 89.2996 98.399 87.9996C97.399 87.2996 97.599 86.0996 98.299 85.0996C98.799 84.3996 99.599 83.7996 100.399 83.5996L100.799 84.2996C100.099 84.4996 99.399 84.8996 98.899 85.5996C98.499 86.1996 98.399 86.8996 98.899 87.1996C100.099 88.0996 101.499 84.7996 103.399 86.0996C104.399 86.7996 104.199 87.8996 103.499 88.8996C103.099 89.4996 102.499 89.9996 101.899 90.1996L101.499 89.4996C102.099 89.1996 102.599 88.7996 102.899 88.2996Z" fill="#2A2A2A"/>
<path d="M100.503 92.7L95.7031 88.7L96.3031 88L101.103 92L100.503 92.7ZM101.803 94C101.503 93.8 101.503 93.4 101.703 93.1C101.903 92.8 102.303 92.8 102.603 93C102.903 93.2 102.903 93.6 102.703 93.9C102.403 94.2 102.003 94.2 101.803 94Z" fill="#2A2A2A"/>
<path d="M92.2031 92.9012C92.3031 92.4012 92.5031 91.9012 92.9031 91.5012C93.5031 90.8012 94.4031 90.7012 95.3031 91.6012L97.9031 94.1012L98.5031 93.4012L99.0031 93.9012L98.4031 94.6012L99.6031 95.8012L99.0031 96.5012L97.8031 95.3012L96.4031 96.7012L95.9031 96.2012L97.3031 94.8012L94.8031 92.4012C94.2031 91.9012 93.8031 91.9012 93.4031 92.3012C93.2031 92.5012 93.0031 92.9012 92.9031 93.2012L92.2031 92.9012Z" fill="#2A2A2A"/>
<path d="M88.6984 99.0002L92.6984 95.7002C91.7984 94.8002 90.5984 94.8002 89.5984 95.6002C88.9984 96.1002 88.6984 96.8002 88.5984 97.5002L87.8984 97.4002C87.8984 96.5002 88.3984 95.6002 89.1984 95.0002C90.5984 93.8002 92.4984 94.0002 93.6984 95.5002C94.8984 97.0002 94.6984 98.8002 93.2984 100C91.6984 101.2 89.9984 100.7 88.6984 99.0002ZM89.7984 99.1002C90.5984 100 91.7984 100.1 92.6984 99.3002C93.5984 98.5002 93.7984 97.4002 93.0984 96.3002L89.7984 99.1002Z" fill="#2A2A2A"/>
<path d="M82.5969 104.1L82.2969 103.5L84.7969 102.1L85.0969 102.7L82.5969 104.1Z" fill="#2A2A2A"/>
<path d="M75.1984 109.9L74.8984 109C76.1984 108.6 76.5984 107.5 76.2984 106.3L75.0984 103.2L75.9984 102.9L78.1984 108.8L77.2984 109.1L76.7984 107.8C76.6984 108.7 76.1984 109.5 75.1984 109.9Z" fill="#2A2A2A"/>
<path d="M67.3984 108.3L72.3984 107C71.8984 105.8 70.8984 105.3 69.6984 105.6C68.8984 105.8 68.2984 106.2 67.9984 106.9L67.3984 106.5C67.7984 105.7 68.5984 105.1 69.5984 104.9C71.3984 104.4 72.9984 105.4 73.3984 107.2C73.8984 109 72.8984 110.6 71.0984 111.1C69.0984 111.5 67.7984 110.4 67.3984 108.3ZM68.3984 108.8C68.7984 110 69.6984 110.5 70.8984 110.2C72.0984 109.9 72.6984 108.9 72.5984 107.7L68.3984 108.8Z" fill="#2A2A2A"/>
<path d="M59.203 109.6C59.003 107.7 60.103 106.3 61.903 106.1C63.003 106 63.903 106.4 64.503 107.2L64.103 103.5L65.003 103.4L65.803 112L64.903 112.1L64.803 110.7C64.403 111.6 63.603 112.2 62.503 112.3C60.803 112.6 59.403 111.4 59.203 109.6ZM60.203 109.5C60.303 110.9 61.403 111.8 62.703 111.6C64.003 111.5 64.903 110.4 64.703 109C64.603 107.6 63.503 106.7 62.203 106.9C60.903 107 60.003 108.1 60.203 109.5Z" fill="#2A2A2A"/>
<path d="M54.2031 112.601V111.701C55.5031 111.801 56.4031 110.901 56.5031 109.701L56.6031 106.301H57.5031L57.4031 112.601H56.5031V111.201C56.0031 112.101 55.3031 112.601 54.2031 112.601Z" fill="#2A2A2A"/>
<path d="M47.4975 108.3L52.5975 109C52.5975 107.7 51.7975 106.8 50.5975 106.7C49.7975 106.6 49.0975 106.8 48.5975 107.2L48.1975 106.6C48.8975 106 49.7975 105.8 50.8975 105.9C52.6975 106.1 53.7975 107.6 53.5975 109.5C53.3975 111.4 51.8975 112.5 50.0975 112.3C47.8975 111.9 47.0975 110.4 47.4975 108.3ZM48.1975 109.1C48.0975 110.3 48.7975 111.2 49.9975 111.4C51.1975 111.6 52.1975 110.9 52.4975 109.7L48.1975 109.1Z" fill="#2A2A2A"/>
<path d="M43.6 110.1C44.3 110.3 44.9 110.2 45 109.6C45.4 108.2 41.8 108 42.3 105.8C42.6 104.6 43.8 104.3 45 104.6C45.9 104.8 46.7 105.4 47.1 106.1L46.6 106.7C46.2 106.1 45.5 105.6 44.8 105.4C44.1 105.2 43.4 105.3 43.3 106C42.9 107.5 46.5 107.6 45.9 109.8C45.6 111 44.5 111.2 43.3 110.9C42.6 110.7 41.9 110.3 41.5 109.8L42 109.2C42.4 109.6 43 110 43.6 110.1Z" fill="#2A2A2A"/>
<path d="M35.4007 104.4L40.2007 106.3C40.5007 105.1 40.0007 104 38.8007 103.5C38.1007 103.2 37.3007 103.2 36.7007 103.5L36.4007 102.8C37.2007 102.4 38.2007 102.4 39.1007 102.8C40.8007 103.5 41.6007 105.2 40.9007 106.9C40.2007 108.7 38.5007 109.4 36.8007 108.7C35.0007 108 34.6007 106.4 35.4007 104.4ZM35.9007 105.4C35.5007 106.6 36.0007 107.6 37.1007 108C38.2007 108.4 39.3007 108 39.9007 106.9L35.9007 105.4Z" fill="#2A2A2A"/>
<path d="M28.2972 101.701L30.1972 98.3008L30.9972 98.8008L29.1972 102.001C28.5972 103.001 28.8972 103.901 29.8972 104.401C30.9972 105.001 32.0972 104.701 32.7972 103.701L34.4972 100.801L35.2972 101.301L32.1972 106.801L31.3972 106.301L31.9972 105.001C31.0972 105.601 30.1972 105.601 29.1972 105.001C27.8972 104.301 27.5972 103.101 28.2972 101.701Z" fill="#2A2A2A"/>
<path d="M25.8 95.5996C26.3 95.5996 26.8 95.7996 27.2 96.0996C27.9 96.5996 28.2 97.4996 27.4 98.4996L25.2 101.4L25.9 101.9L25.5 102.5L24.8 102L23.8 103.3L23.1 102.8L24.1 101.5L22.5 100.3L22.9 99.6996L24.5 100.9L26.6 98.0996C27.1 97.4996 27 97.0996 26.6 96.6996C26.3 96.4996 26 96.3996 25.6 96.3996L25.8 95.5996Z" fill="#2A2A2A"/>
<path d="M22.3012 91.9008L21.6012 92.6008C22.4012 92.4008 23.3012 92.7008 24.0012 93.4008C25.0012 94.3008 25.0012 95.5008 24.3012 96.3008C23.5012 97.1008 22.4012 97.0008 21.3012 96.0008L19.8012 94.6008L19.5012 94.9008C18.9012 95.6008 18.9013 96.4008 19.7013 97.1008C20.2013 97.6008 20.9013 97.8008 21.7013 97.9008L21.5012 98.7008C20.5012 98.5008 19.8012 98.3008 19.0012 97.6008C17.9012 96.5008 17.8013 95.3008 18.7013 94.4008L21.5012 91.3008L22.3012 91.9008ZM20.8012 93.5008L20.3012 94.0008L21.7013 95.3008C22.5013 96.0008 23.1013 96.2008 23.6013 95.6008C24.1013 95.1008 24.0012 94.4008 23.3012 93.8008C22.6012 93.2008 21.6012 93.0008 20.8012 93.5008Z" fill="#2A2A2A"/>
<path d="M17.9016 87.7012C18.4016 87.8012 18.9016 88.1012 19.2016 88.5012C19.8016 89.2012 19.8016 90.1012 18.9016 90.9012L16.1016 93.3012L16.7016 94.0012L16.1016 94.5012L15.5016 93.8012L14.2016 94.9012L13.6016 94.2012L15.0016 93.0012L13.7016 91.5012L14.3016 91.0012L15.6016 92.5012L18.2016 90.2012C18.8016 89.7012 18.8016 89.3012 18.5016 88.9012C18.3016 88.7012 18.0016 88.5012 17.6016 88.3012L17.9016 87.7012Z" fill="#2A2A2A"/>
<path d="M10.3019 90.3012C10.6019 90.1012 11.0019 90.1012 11.2019 90.4012C11.4019 90.7012 11.3019 91.1012 11.1019 91.3012C10.8019 91.5012 10.4019 91.5012 10.2019 91.2012C10.0019 90.9012 10.0019 90.5012 10.3019 90.3012ZM11.9019 89.4012L17.0019 85.7012L17.5019 86.4012L12.4019 90.1012L11.9019 89.4012Z" fill="#2A2A2A"/>
<path d="M10.3969 87.3008L13.8969 82.8008L8.29688 83.9008L7.79688 83.0008L14.4969 81.8008L14.9969 82.6008L10.8969 88.0008L10.3969 87.3008Z" fill="#2A2A2A"/>
<path d="M8.10344 75.3L10.2034 80C11.3034 79.3 11.6034 78.2 11.1034 77.1C10.8034 76.4 10.2034 75.9 9.60344 75.7L9.90344 75C10.7034 75.3 11.5034 75.9 11.9034 76.9C12.7034 78.6 12.0034 80.3 10.3034 81.1C8.60344 81.9 6.90344 81.2 6.10344 79.6C5.30344 77.6 6.10344 76.1 8.10344 75.3ZM7.80344 76.4C6.70344 77 6.30344 78 6.80344 79.2C7.30344 80.3 8.40344 80.8 9.50344 80.4L7.80344 76.4Z" fill="#2A2A2A"/>
<path d="M4.79688 68.1004L5.49687 67.9004L6.19687 70.6004L5.49687 70.8004L4.79688 68.1004Z" fill="#2A2A2A"/>
<path d="M1.40312 62.5L6.70312 60.4L1.30312 58.7V57.7L6.60312 55.7L1.20312 54V53L7.60312 55.1V56.1L2.50312 58.1L7.70312 59.8V60.8L1.50312 63.4L1.40312 62.5Z" fill="#2A2A2A"/>
<path d="M5.49987 46.601L4.89987 51.701C6.19987 51.701 7.09987 50.901 7.19987 49.701C7.29987 48.901 7.09987 48.201 6.59987 47.701L7.19987 47.301C7.79987 48.001 7.99987 48.901 7.89987 50.001C7.69987 51.801 6.19987 53.001 4.29987 52.701C2.39987 52.501 1.29987 51.001 1.49987 49.201C1.89987 47.001 3.39987 46.201 5.49987 46.601ZM4.59987 47.301C3.39987 47.201 2.49987 47.901 2.29987 49.101C2.09987 50.301 2.79987 51.301 3.99987 51.501L4.59987 47.301Z" fill="#2A2A2A"/>
<path d="M7.3 38.5008C9.1 39.0008 10 40.5008 9.5 42.3008C9.2 43.4008 8.5 44.1008 7.5 44.3008L8.8 44.7008L8.5 45.6008L0 43.1008L0.3 42.2008L4.1 43.3008C3.4 42.6008 3.1 41.6008 3.4 40.6008C3.9 38.9008 5.5 38.0008 7.3 38.5008ZM7 39.4008C5.7 39.0008 4.5 39.7008 4.1 40.9008C3.7 42.2008 4.4 43.4008 5.8 43.7008C7.1 44.1008 8.3 43.4008 8.7 42.2008C9 41.0008 8.3 39.8008 7 39.4008Z" fill="#2A2A2A"/>
<path d="M6.40238 34.4004C6.10238 35.1004 6.10238 35.6004 6.70238 35.9004C8.00238 36.5004 8.70238 32.9004 10.8024 33.8004C11.9024 34.3004 12.0024 35.5004 11.5024 36.6004C11.1024 37.4004 10.5024 38.2004 9.70238 38.5004L9.20238 37.9004C9.90238 37.6004 10.5024 37.0004 10.8024 36.3004C11.1024 35.6004 11.1024 35.0004 10.5024 34.7004C9.10238 34.1004 8.40238 37.6004 6.40238 36.7004C5.30238 36.2004 5.20238 35.1004 5.70238 34.0004C6.00238 33.3004 6.50238 32.8004 7.00238 32.4004L7.50238 33.0004C7.10238 33.4004 6.60238 33.9004 6.40238 34.4004Z" fill="#2A2A2A"/>
<path d="M6.4 28.6001C6.7 28.8001 6.8 29.1001 6.7 29.4001C6.5 29.7001 6.2 29.8001 5.9 29.6001C5.6 29.4001 5.5 29.1001 5.6 28.8001C5.7 28.5001 6.1 28.4001 6.4 28.6001ZM7.9 29.5001L13.5 32.5001L13.1 33.3001L7.5 30.3001L7.9 29.5001Z" fill="#2A2A2A"/>
<path d="M15.9016 27.7012C15.9016 28.2012 15.8016 28.7012 15.5016 29.2012C15.0016 30.0012 14.2016 30.3012 13.1016 29.6012L10.0016 27.7012L9.50156 28.5012L9.00156 28.0012L9.50156 27.2012L8.10156 26.3012L8.60156 25.5012L10.0016 26.4012L11.1016 24.7012L11.7016 25.1012L10.6016 26.8012L13.5016 28.7012C14.1016 29.1012 14.6016 29.0012 14.9016 28.6012C15.1016 28.3012 15.2016 28.0012 15.2016 27.6012L15.9016 27.7012Z" fill="#2A2A2A"/>
<path d="M18.0967 21.0008L14.8967 25.0008C15.9967 25.7008 17.1967 25.5008 17.8967 24.5008C18.3967 23.9008 18.5967 23.2008 18.4967 22.5008L19.1967 22.4008C19.2967 23.3008 19.0967 24.2008 18.3967 25.0008C17.1967 26.5008 15.3967 26.6008 13.8967 25.5008C12.3967 24.3008 12.1967 22.5008 13.3967 21.1008C14.7967 19.5008 16.4967 19.6008 18.0967 21.0008ZM16.9967 21.2008C15.9967 20.5008 14.8967 20.6008 14.0967 21.6008C13.2967 22.5008 13.3967 23.7008 14.2967 24.6008L16.9967 21.2008Z" fill="#2A2A2A"/>
<path d="M22.9984 14.7012L23.4984 15.2012L21.3984 17.1012L20.8984 16.6012L22.9984 14.7012Z" fill="#2A2A2A"/>
<path d="M31.2971 6.40039L34.1971 11.3004C35.0971 12.9004 34.5971 14.5004 32.9971 15.5004C32.0971 16.0004 31.2971 16.1004 30.2971 16.0004V15.2004C31.0971 15.3004 31.7971 15.2004 32.4971 14.8004C33.6971 14.1004 33.9971 12.9004 33.3971 11.8004L32.8971 11.0004C32.8971 11.9004 32.4971 12.8004 31.5971 13.3004C30.0971 14.2004 28.4971 13.7004 27.5971 12.1004C26.5971 10.5004 26.9971 8.90039 28.4971 8.00039C29.3971 7.40039 30.3971 7.40039 31.1971 7.90039L30.4971 6.80039L31.2971 6.40039ZM31.9971 9.40039C31.2971 8.30039 30.0971 7.90039 28.9971 8.50039C27.8971 9.10039 27.5971 10.4004 28.2971 11.6004C28.9971 12.7004 30.1971 13.1004 31.2971 12.4004C32.3971 11.8004 32.6971 10.6004 31.9971 9.40039Z" fill="#2A2A2A"/>
<path d="M40.2986 5.90087C40.9986 7.60087 40.2986 9.40087 38.4986 10.1009C36.7986 10.8009 34.9986 10.1009 34.2986 8.30087C33.5986 6.60087 34.2986 4.90087 36.0986 4.10087C37.8986 3.40087 39.5986 4.20087 40.2986 5.90087ZM35.1986 8.00087C35.6986 9.30087 36.9986 9.80087 38.1986 9.30087C39.3986 8.80087 39.8986 7.60087 39.3986 6.20087C38.8986 4.90087 37.5986 4.40087 36.3986 4.90087C35.1986 5.40087 34.6986 6.70087 35.1986 8.00087Z" fill="#2A2A2A"/>
</g>
<defs>
<clipPath id="clip0_4305_547">
<rect width="113.9" height="112.6" fill="white"/>
</clipPath>
</defs>
</svg>
